<?xml version="1.0" standalone="yes"?>

<svg version="1.1" viewBox="0.0 0.0 493.20472440944883 155.38320209973753" fill="none" stroke="none" stroke-linecap="square" stroke-miterlimit="10" xmlns="http://www.w3.org/2000/svg" xmlns:xlink="http://www.w3.org/1999/xlink"><clipPath id="p.0"><path d="m0 0l493.2047 0l0 155.38321l-493.2047 0l0 -155.38321z" clip-rule="nonzero"></path></clipPath><g clip-path="url(#p.0)"><path fill="#000000" fill-opacity="0.0" d="m0 0l493.2047 0l0 155.38321l-493.2047 0z" fill-rule="evenodd"></path><path fill="#0000ff" d="m15.700863 14.458465l0 140.37794l35.731056 -38.383537l0 -67.594955l62.923817 0l32.022285 -34.399456z" fill-rule="evenodd"></path><path fill="#000000" d="m0 0l0 140.37796l33.700333 -36.20208l0 -69.90579l65.074974 0l31.901863 -34.27009z" fill-rule="evenodd"></path><path fill="#000000" fill-opacity="0.0" d="m45.24672 40.63517l461.7008 0l0 74.11024l-461.7008 0z" fill-rule="evenodd"></path><path fill="#000000" d="m60.40973 56.646538l11.609375 0q6.15625 0 9.75 1.640625q3.609375 1.640625 6.25 5.15625q4.875 6.5625 4.875 18.40625q-0.484375 12.078125 -5.609375 18.4375q-5.109375 6.359375 -16.234375 6.28125l-10.640625 0l0 -49.921875zm10.40625 45.53125q16.484375 0 16.484375 -20.0q-0.078125 -10.171875 -3.765625 -15.484375q-3.671875 -5.328125 -11.84375 -5.328125l-6.0 0l0 40.8125l5.125 0zm33.28122 4.3125l0 -4.640625l9.359375 0l0 -27.28125l-8.875 0l0 -4.640625l14.640625 0l0 31.921875l8.5625 0l0 4.640625l-23.6875 0zm11.90625 -44.234375q-1.671875 0 -2.875 -1.203125q-1.203125 -1.203125 -1.203125 -2.875q0 -1.765625 1.15625 -2.96875q1.171875 -1.203125 2.921875 -1.203125q1.6875 0 2.921875 1.25q1.25 1.234375 1.25 2.921875q0 1.671875 -1.25 2.875q-1.234375 1.203125 -2.921875 1.203125zm42.734344 22.71875q6.875 2.078125 9.71875 4.515625q2.84375 2.4375 2.84375 6.359375q0 4.953125 -3.890625 8.203125q-3.875 3.234375 -11.234375 3.234375q-9.28125 0 -15.515625 -5.75l3.203125 -5.453125l0.078125 -0.078125l0.078125 0.078125q2.484375 3.203125 5.125 4.8125q2.640625 1.59375 7.1875 1.59375q4.328125 0 6.796875 -1.5625q2.484375 -1.5625 2.484375 -4.28125q0 -2.3125 -2.0 -3.828125q-2.0 -1.53125 -7.203125 -3.203125q-13.75 -3.921875 -13.75 -11.359375q0 -4.25 3.46875 -6.71875q3.484375 -2.484375 9.96875 -2.484375q4.953125 0 8.359375 1.40625q3.40625 1.390625 6.203125 4.34375l-3.28125 4.0l-0.078125 0.09375q-1.6875 -2.5625 -4.765625 -4.046875q-3.078125 -1.484375 -6.28125 -1.484375q-3.4375 0 -5.640625 1.203125q-2.203125 1.203125 -2.203125 3.359375q0 2.0 2.234375 3.6875q2.25 1.671875 8.09375 3.359375zm7.671875 -5.921875q0 -0.40625 0.640625 0.078125l-0.234375 0.3125l-0.40625 -0.390625zm0.890625 -0.15625q0.234375 0.3125 0.1875 0.390625q-0.03125 0.078125 -0.1875 0q-0.15625 -0.078125 -0.25 -0.15625l0.25 -0.234375zm-22.484375 16.875q0 0.3125 -0.71875 0l0.234375 -0.40625l0.484375 0.328125l0 0.078125zm-0.875 0.234375q-0.25 -0.390625 -0.171875 -0.390625q0.09375 0 0.328125 0.15625l-0.15625 0.234375zm55.28122 6.171875q5.515625 0 9.515625 -4.484375l3.359375 3.921875q-5.359375 5.75 -13.203125 5.75q-5.28125 0 -9.4375 -2.46875q-4.15625 -2.484375 -6.515625 -6.84375q-2.359375 -4.359375 -2.359375 -9.796875q0 -5.453125 2.359375 -9.765625q2.359375 -4.3125 6.515625 -6.796875q4.15625 -2.484375 9.359375 -2.484375q4.40625 0 8.0 1.796875q3.59375 1.796875 5.84375 5.0l-3.609375 3.53125l-0.078125 0.078125q-2.3125 -3.046875 -4.75 -4.28125q-2.4375 -1.25 -6.046875 -1.25q-3.125 0 -5.8125 1.734375q-2.671875 1.71875 -4.265625 4.84375q-1.59375 3.109375 -1.59375 7.1875q0 4.078125 1.640625 7.359375q1.640625 3.28125 4.546875 5.125q2.921875 1.84375 6.53125 1.84375zm8.875 -22.484375q0 -0.484375 0.71875 0.078125l-0.3125 0.3125l-0.40625 -0.390625zm0.875 -0.078125q0.40625 0.5625 0.203125 0.40625q-0.203125 -0.171875 -0.359375 -0.25l0.15625 -0.15625zm27.12497 27.515625q-4.875 0 -8.71875 -2.390625q-3.84375 -2.40625 -6.0 -6.71875q-2.15625 -4.328125 -2.15625 -9.84375q0 -5.53125 2.15625 -9.84375q2.15625 -4.328125 6.0 -6.765625q3.84375 -2.4375 8.71875 -2.4375q4.875 0 8.71875 2.4375q3.84375 2.4375 6.0 6.765625q2.15625 4.3125 2.15625 9.84375q0 5.515625 -2.15625 9.84375q-2.15625 4.3125 -6.0 6.71875q-3.84375 2.390625 -8.71875 2.390625zm0 -4.796875q3.125 0 5.5625 -1.84375q2.4375 -1.84375 3.828125 -5.078125q1.40625 -3.234375 1.40625 -7.328125q0 -6.234375 -3.046875 -10.1875q-3.03125 -3.96875 -7.75 -3.96875q-4.71875 0 -7.765625 3.96875q-3.03125 3.953125 -3.03125 10.1875q0 4.09375 1.390625 7.328125q1.40625 3.234375 3.84375 5.078125q2.4375 1.84375 5.5625 1.84375zm56.40622 -32.40625q-1.28125 6.484375 -5.359375 16.0l-8.890625 20.5625l-4.46875 0l-14.484375 -36.5625l5.75 0l11.28125 28.640625l5.921875 -13.515625q3.6875 -8.328125 4.796875 -15.125l5.453125 0zm25.359344 37.359375q-8.171875 0 -13.015625 -4.953125q-4.828125 -4.96875 -4.828125 -14.0q0 -6.0 2.234375 -10.359375q2.25 -4.359375 6.046875 -6.640625q3.796875 -2.28125 8.515625 -2.28125q6.640625 0 10.75 4.40625q4.125 4.390625 4.125 12.953125q0 0.875 -0.15625 2.640625l-26.0 0q0.328125 6.71875 3.765625 10.15625q3.4375 3.4375 8.71875 3.4375q5.765625 0 9.4375 -4.078125l3.203125 3.125q-4.640625 5.59375 -12.796875 5.59375zm8.0 -22.71875q0 -5.125 -2.609375 -8.125q-2.59375 -3.0 -6.84375 -3.0q-4.0 0 -6.953125 2.8125q-2.953125 2.796875 -3.671875 8.3125l20.078125 0zm44.31244 -7.03125l0 0.078125q-2.3125 -2.171875 -3.875 -2.890625q-1.5625 -0.71875 -3.640625 -0.71875q-2.875 0 -5.4375 1.453125q-2.5625 1.4375 -4.171875 4.359375q-1.59375 2.90625 -1.59375 7.3125l0 19.4375l-5.84375 0l0 -36.640625l6.0 0l-0.15625 6.71875q1.515625 -3.59375 4.671875 -5.59375q3.171875 -2.0 6.921875 -2.0q5.84375 0 9.6875 4.0l-2.5625 4.484375zm0 0.078125q0.5625 0.46875 0.28125 0.390625q-0.28125 -0.078125 -0.4375 -0.15625l0.15625 -0.234375zm-0.875 0.234375q0 -0.234375 0.234375 -0.1875q0.25 0.03125 0.484375 0.1875l-0.15625 0.40625l-0.5625 -0.328125l0 -0.078125z" fill-rule="nonzero"></path><path fill="#0000ff" d="m379.6126 56.646538l12.890625 0q6.375 0 10.140625 1.703125q3.765625 1.6875 6.421875 5.25q5.125 6.953125 5.125 18.3125q0 11.796875 -5.5 18.1875q-5.484375 6.390625 -17.15625 6.390625l-11.921875 0l0 -49.84375zm11.765625 42.8125q6.984375 0 10.40625 -4.40625q3.421875 -4.421875 3.421875 -12.90625q0 -18.046875 -13.015625 -18.046875l-3.859375 0l0 35.359375l3.046875 0zm46.328125 8.328125q-5.390625 0 -9.609375 -2.34375q-4.21875 -2.359375 -6.625 -6.75q-2.40625 -4.390625 -2.40625 -10.375q0 -6.046875 2.265625 -10.578125q2.265625 -4.53125 6.28125 -6.96875q4.03125 -2.453125 9.109375 -2.453125q4.5 0 8.109375 2.09375q3.609375 2.09375 5.71875 6.21875q2.109375 4.109375 2.109375 9.9375q0 0.9375 -0.15625 2.65625l-0.078125 1.09375l-24.484375 0q0.578125 5.109375 3.1875 7.71875q2.625 2.59375 6.265625 2.59375q2.578125 0 5.1875 -1.1875q2.625 -1.203125 4.296875 -3.34375l4.96875 4.953125q-5.671875 6.734375 -14.140625 6.734375zm6.015625 -24.03125q0 -2.34375 -0.921875 -4.328125q-0.921875 -2.0 -2.625 -3.1875q-1.6875 -1.203125 -3.921875 -1.203125q-3.28125 0 -5.4375 2.375q-2.140625 2.359375 -2.5625 6.34375l15.46875 0zm49.015625 -14.609375q-0.1875 3.28125 -1.234375 6.546875q-1.03125 3.25 -3.015625 8.328125l-8.875 22.46875l-7.34375 0l-14.171875 -37.34375l8.90625 0l9.328125 27.375l5.359375 -13.546875q1.5625 -4.5 2.34375 -7.625q0.78125 -3.125 0.78125 -6.203125l7.921875 0z" fill-rule="nonzero"></path></g></svg>

