<?xml version="1.0" standalone="yes"?>

<svg version="1.1" viewBox="0.0 0.0 478.73228346456693 118.83202099737532" fill="none" stroke="none" stroke-linecap="square" stroke-miterlimit="10" xmlns="http://www.w3.org/2000/svg" xmlns:xlink="http://www.w3.org/1999/xlink"><clipPath id="p.0"><path d="m0 0l478.73227 0l0 118.83202l-478.73227 0l0 -118.83202z" clip-rule="nonzero"></path></clipPath><g clip-path="url(#p.0)"><path fill="#000000" fill-opacity="0.0" d="m0 0l478.73227 0l0 118.83202l-478.73227 0z" fill-rule="evenodd"></path><path fill="#0000ff" d="m13.338946 11.591319l0 106.897644l24.114578 -24.387627l0 -60.85615l60.174786 0l21.411423 -21.653862z" fill-rule="evenodd"></path><path fill="#000000" d="m0 0l0 112.53543l23.83344 -24.157982l0 -65.85631l64.97159 0l22.21859 -22.521141z" fill-rule="evenodd"></path><path fill="#000000" fill-opacity="0.0" d="m32.11811 27.984251l459.46457 0l0 74.11024l-459.46457 0z" fill-rule="evenodd"></path><path fill="#000000" d="m45.36602 43.99562l12.890625 0q6.375 0 10.140625 1.703125q3.765625 1.6875 6.421875 5.25q5.125 6.953125 5.125 18.3125q0 11.796875 -5.5 18.1875q-5.484375 6.390625 -17.15625 6.390625l-11.921875 0l0 -49.84375zm11.765625 42.8125q6.984375 0 10.40625 -4.40625q3.421875 -4.421875 3.421875 -12.90625q0 -18.046875 -13.015625 -18.046875l-3.859375 0l0 35.359375l3.046875 0zm31.828125 7.03125l0 -7.1875l8.984375 0l0 -22.96875l-8.546875 0l0 -7.1875l17.5 0l0 30.15625l8.15625 0l0 7.1875l-26.09375 0zm12.890625 -43.828125q-1.53125 0 -2.828125 -0.71875q-1.28125 -0.734375 -2.03125 -1.9375q-0.734375 -1.21875 -0.734375 -2.625q0 -2.296875 1.5625 -3.796875q1.5625 -1.515625 4.03125 -1.515625q1.4375 0 2.75 0.734375q1.3125 0.71875 2.09375 1.953125q0.78125 1.21875 0.78125 2.625q0 1.40625 -0.78125 2.625q-0.78125 1.203125 -2.09375 1.9375q-1.3125 0.71875 -2.75 0.71875zm43.671867 21.515625q4.609375 1.40625 7.21875 2.84375q2.625 1.421875 3.828125 3.421875q1.21875 1.984375 1.21875 4.984375q0 3.25 -1.9375 6.078125q-1.921875 2.828125 -5.28125 4.5625q-3.359375 1.71875 -7.5 1.71875q-5.625 0 -9.8125 -1.5q-4.171875 -1.515625 -7.6562424 -4.84375l3.7499924 -6.5625l0.046875 -0.078125l0.078125 0.078125q2.734375 2.96875 5.90625 4.328125q3.1875 1.34375 7.765625 1.34375q6.40625 0 6.40625 -4.21875q0 -1.296875 -0.78125 -2.234375q-0.78125 -0.9375 -2.5 -1.71875q-1.71875 -0.78125 -4.734375 -1.640625q-6.4375 -1.671875 -10.015625 -4.234375q-3.5781174 -2.5625 -3.5781174 -7.046875q0 -3.25 1.7343674 -5.765625q1.75 -2.515625 5.0 -3.9375q3.265625 -1.4375 7.640625 -1.4375q4.375 0 7.984375 1.4375q3.625 1.421875 6.671875 4.34375l-4.53125 6.296875l-0.046875 0.078125q-0.03125 0 -0.03125 -0.015625q0 -0.03125 0 -0.03125q-1.640625 -2.34375 -4.25 -3.625q-2.59375 -1.296875 -5.640625 -1.296875q-2.375 0 -3.984375 0.828125q-1.59375 0.8125 -1.59375 2.21875q0 1.296875 0.875 2.21875q0.875 0.90625 2.65625 1.65625q1.78125 0.734375 5.09375 1.75zm5.78125 -3.78125q0 -0.078125 0.078125 -0.078125q0.125 0 0.40625 0.203125q0.296875 0.1875 0.421875 0.265625l-0.15625 0.1875l-0.75 -0.5l0 -0.078125zm1.09375 0.078125q0.28125 0.421875 0.28125 0.546875q0 0.03125 -0.1875 -0.0625q-0.171875 -0.09375 -0.28125 -0.171875l0.1875 -0.3125zm-21.875 14.375q0 0.078125 -0.078125 0.078125q-0.109375 0 -0.40625 -0.15625q-0.296875 -0.15625 -0.484375 -0.234375l0.15625 -0.28125l0.78125 0.46875l0.03125 0.125zm-1.125 -0.046875q-0.3125 -0.3125 -0.3125 -0.421875q0 0 0 -0.015625q0 -0.03125 0.03125 -0.03125l0.4375 0.203125l-0.15625 0.265625zm54.375 5.28125q2.53125 0 4.96875 -1.171875q2.453125 -1.171875 4.5625 -3.796875l5.1875 6.015625q-3.0 3.40625 -6.78125 5.03125q-3.765625 1.625 -7.9375 1.625q-5.46875 0 -9.765625 -2.546875q-4.296875 -2.546875 -6.703125 -7.015625q-2.40625 -4.46875 -2.40625 -10.0625q0 -5.546875 2.40625 -10.078125q2.40625 -4.53125 6.71875 -7.140625q4.3125 -2.625 9.828125 -2.625q4.609375 0 8.625 1.875q4.03125 1.875 6.328125 5.3125l-5.0 5.859375l-0.03125 0.078125q-0.046875 0 -0.046875 -0.015625q0 -0.015625 0 -0.015625q-1.640625 -2.859375 -3.984375 -4.234375q-2.34375 -1.390625 -5.890625 -1.390625q-2.734375 0 -4.984375 1.5625q-2.25 1.5625 -3.5625 4.421875q-1.296875 2.84375 -1.296875 6.546875q0 3.5625 1.21875 6.21875q1.234375 2.65625 3.453125 4.109375q2.234375 1.4375 5.09375 1.4375zm8.90625 -18.796875q0 -0.109375 0.078125 -0.109375q0.234375 0 0.78125 0.546875l-0.15625 0.1875l-0.703125 -0.578125l0 -0.046875zm1.09375 0.15625q0.234375 0.46875 0.234375 0.546875q0 0.046875 -0.046875 0.046875q-0.109375 0 -0.421875 -0.3125l0.234375 -0.28125zm28.15625 26.34375q-4.953125 0 -9.015625 -2.546875q-4.0625 -2.546875 -6.40625 -7.078125q-2.34375 -4.53125 -2.34375 -10.3125q0 -5.421875 2.375 -9.890625q2.390625 -4.484375 6.46875 -7.0625q4.078125 -2.578125 8.921875 -2.578125q4.84375 0 8.921875 2.578125q4.09375 2.578125 6.46875 7.0625q2.390625 4.46875 2.390625 9.890625q0 5.78125 -2.34375 10.3125q-2.34375 4.53125 -6.40625 7.078125q-4.0625 2.546875 -9.03125 2.546875zm0 -7.234375q2.65625 0 4.625 -1.578125q1.984375 -1.59375 3.03125 -4.453125q1.0625 -2.875 1.0625 -6.671875q0 -3.828125 -1.0625 -6.59375q-1.046875 -2.78125 -3.03125 -4.265625q-1.96875 -1.484375 -4.625 -1.484375q-2.53125 0 -4.46875 1.484375q-1.9375 1.484375 -3.015625 4.28125q-1.0625 2.796875 -1.0625 6.578125q0 3.828125 1.03125 6.703125q1.03125 2.875 2.9375 4.4375q1.921875 1.5625 4.578125 1.5625zm56.562515 -31.40625q-0.1875 3.28125 -1.234375 6.546875q-1.03125 3.25 -3.015625 8.328125l-8.875 22.46875l-7.34375 0l-14.17189 -37.34375l8.90625 0l9.32814 27.375l5.359375 -13.546875q1.5625 -4.5 2.34375 -7.625q0.78125 -3.125 0.78125 -6.203125l7.921875 0zm24.96875 38.640625q-5.390625 0 -9.609375 -2.34375q-4.21875 -2.359375 -6.625 -6.75q-2.40625 -4.390625 -2.40625 -10.375q0 -6.046875 2.265625 -10.578125q2.265625 -4.53125 6.28125 -6.96875q4.03125 -2.453125 9.109375 -2.453125q4.5 0 8.109375 2.09375q3.609375 2.09375 5.71875 6.21875q2.109375 4.109375 2.109375 9.9375q0 0.9375 -0.15625 2.65625l-0.078125 1.09375l-24.484375 0q0.578125 5.109375 3.1875 7.71875q2.625 2.59375 6.265625 2.59375q2.578125 0 5.1875 -1.1875q2.625 -1.203125 4.296875 -3.34375l4.96875 4.953125q-5.671875 6.734375 -14.140625 6.734375zm6.015625 -24.03125q0 -2.34375 -0.921875 -4.328125q-0.921875 -2.0 -2.625 -3.1875q-1.6875 -1.203125 -3.921875 -1.203125q-3.28125 0 -5.4375 2.375q-2.140625 2.359375 -2.5625 6.34375l15.46875 0zm45.890625 -3.28125l-0.03125 -0.046875q-1.484375 -2.421875 -3.203125 -3.453125q-1.71875 -1.03125 -4.03125 -1.03125q-2.84375 0 -5.15625 1.34375q-2.296875 1.34375 -3.609375 3.84375q-1.3125 2.5 -1.3125 5.828125l0 19.53125l-9.0625 0l0 -37.34375l9.21875 0l0 5.34375q1.484375 -2.890625 4.359375 -4.53125q2.875 -1.640625 6.421875 -1.640625q2.78125 0 5.53125 1.046875q2.75 1.03125 4.90625 3.0625l-4.03125 8.046875zm-1.125 0.03125q0 -0.03125 0.03125 -0.03125q0.125 0 0.40625 0.171875q0.296875 0.171875 0.453125 0.25l-0.03125 0.125l-0.828125 -0.390625l-0.03125 -0.125zm1.125 -0.03125q0.234375 0.390625 0.234375 0.546875q0 0.03125 -0.078125 0.03125q-0.109375 0 -0.390625 -0.15625l0.234375 -0.421875z" fill-rule="nonzero"></path><path fill="#0000ff" d="m365.36603 43.99562l12.890625 0q6.375 0 10.140625 1.703125q3.765625 1.6875 6.421875 5.25q5.125 6.953125 5.125 18.3125q0 11.796875 -5.5 18.1875q-5.484375 6.390625 -17.15625 6.390625l-11.921875 0l0 -49.84375zm11.765625 42.8125q6.984375 0 10.40625 -4.40625q3.421875 -4.421875 3.421875 -12.90625q0 -18.046875 -13.015625 -18.046875l-3.859375 0l0 35.359375l3.046875 0zm46.328125 8.328125q-5.390625 0 -9.609375 -2.34375q-4.21875 -2.359375 -6.625 -6.75q-2.40625 -4.390625 -2.40625 -10.375q0 -6.046875 2.265625 -10.578125q2.265625 -4.53125 6.28125 -6.96875q4.03125 -2.453125 9.109375 -2.453125q4.5 0 8.109375 2.09375q3.609375 2.09375 5.71875 6.21875q2.109375 4.109375 2.109375 9.9375q0 0.9375 -0.15625 2.65625l-0.078125 1.09375l-24.484375 0q0.578125 5.109375 3.1875 7.71875q2.625 2.59375 6.265625 2.59375q2.578125 0 5.1875 -1.1875q2.625 -1.203125 4.296875 -3.34375l4.96875 4.953125q-5.671875 6.734375 -14.140625 6.734375zm6.015625 -24.03125q0 -2.34375 -0.921875 -4.328125q-0.921875 -2.0 -2.625 -3.1875q-1.6875 -1.203125 -3.921875 -1.203125q-3.28125 0 -5.4375 2.375q-2.140625 2.359375 -2.5625 6.34375l15.46875 0zm49.015625 -14.609375q-0.1875 3.28125 -1.234375 6.546875q-1.03125 3.25 -3.015625 8.328125l-8.875 22.46875l-7.34375 0l-14.171875 -37.34375l8.90625 0l9.328125 27.375l5.359375 -13.546875q1.5625 -4.5 2.34375 -7.625q0.78125 -3.125 0.78125 -6.203125l7.921875 0z" fill-rule="nonzero"></path></g></svg>

